<?xml version="1.0" standalone="no"?><!DOCTYPE svg PUBLIC "-//W3C//DTD SVG 1.1//EN" "http://www.w3.org/Graphics/SVG/1.1/DTD/svg11.dtd"><svg t="1600007424454" class="icon" viewBox="0 0 1024 1024" version="1.1" xmlns="http://www.w3.org/2000/svg" p-id="2720" xmlns:xlink="http://www.w3.org/1999/xlink" width="200" height="200"><defs><style type="text/css"></style></defs><path d="M512 64C264.6 64 64 264.6 64 512s200.6 448 448 448 448-200.6 448-448S759.4 64 512 64z m271.5 719.5c-35.3 35.3-76.4 63-122.1 82.3-47.3 20-97.6 30.2-149.4 30.2-51.9 0-102.2-10.1-149.5-30.2-45.7-19.3-86.8-47-122.1-82.3s-63-76.4-82.3-122.1c-20-47.3-30.1-97.6-30.1-149.4 0-51.9 10.1-102.2 30.1-149.5 19.3-45.7 47-86.8 82.3-122.1s76.4-63 122.1-82.3c47.3-20 97.6-30.1 149.5-30.1 51.9 0 102.1 10.1 149.4 30.1 45.7 19.3 86.8 47 122.1 82.3s63 76.4 82.3 122.1c20 47.3 30.2 97.6 30.2 149.5 0 51.9-10.1 102.1-30.2 149.4-19.3 45.7-47 86.8-82.3 122.1z" fill="#47444F" p-id="2721"></path><path d="M736 544H480V288c0-17.7-14.3-32-32-32s-32 14.3-32 32v288c0 17.7 14.3 32 32 32h288c17.7 0 32-14.3 32-32s-14.3-32-32-32z" fill="#47444F" p-id="2722"></path></svg>